<?xml version="1.0" encoding="utf-8"?>
<!-- Generator: Adobe Illustrator 16.0.0, SVG Export Plug-In . SVG Version: 6.00 Build 0)  -->
<!DOCTYPE svg PUBLIC "-//W3C//DTD SVG 1.1//EN" "http://www.w3.org/Graphics/SVG/1.1/DTD/svg11.dtd">
<svg version="1.1" id="Layer_1" xmlns="http://www.w3.org/2000/svg" xmlns:xlink="http://www.w3.org/1999/xlink" x="0px" y="0px"
	 width="152.238px" height="32.617px" viewBox="0 0 152.238 32.617" enable-background="new 0 0 152.238 32.617"
	 xml:space="preserve">
<g>
	<g>
		<path fill="#222222" d="M7.094,28.037h2.431c1.233,0,1.831-0.598,1.831-1.836v-6.09c0-1.373-0.644-2.018-2.02-2.018H7.094V28.037z
			 M9.429,4.582H7.094v9.345h2.153c1.372,0,2.013-0.643,2.013-2.019V6.416C11.26,5.175,10.667,4.582,9.429,4.582 M16.208,20.477
			v5.909c0,3.986-1.969,5.955-5.953,5.955H2.238V0.276h7.923c3.986,0,5.956,1.971,5.956,5.953v4.72c0,2.841-0.963,4.26-2.751,4.901
			C15.291,16.492,16.208,17.867,16.208,20.477"/>
		<path fill="#222222" d="M27.152,4.626h-2.38v10.582h2.199c1.375,0,2.014-0.642,2.014-1.969V6.46
			C28.984,5.224,28.391,4.626,27.152,4.626 M33.933,21.438v10.901h-4.898V21.531c0-1.422-0.643-2.062-2.062-2.062h-2.199V32.34
			H19.87V0.275h8.063c3.98,0,5.949,1.97,5.949,5.954v6.049c0,2.839-1.005,4.214-2.792,4.947
			C33.108,17.773,33.933,19.012,33.933,21.438"/>
	</g>
	<path fill="#222222" d="M42.452,22.951h3.985L44.467,6.916L42.452,22.951z M52.482,32.339h-4.855l-0.64-5.039h-5.086l-0.594,5.039
		H36.77l4.582-32.112h6.505L52.482,32.339z"/>
	<polygon fill="#222222" points="65.672,0.276 70.071,0.276 70.071,32.341 64.758,32.341 59.762,10.72 59.81,32.341 55.413,32.341 
		55.413,0.276 61.139,0.276 65.717,20.201 	"/>
	<g>
		<path fill="#222222" d="M78.818,28.035h1.785c1.925,0,2.796-0.918,2.796-2.84V7.421c0-1.923-0.871-2.839-2.796-2.839h-1.785
			V28.035z M73.914,0.276h7.375c4.771,0,7.01,2.291,7.01,7.009v18.048c0,4.722-2.237,7.008-7.01,7.008h-7.375V0.276z"/>
		<path fill="#222222" d="M105.017,21.438v5.229c0,3.979-1.974,5.953-5.955,5.953H96.91c-3.985,0-5.91-1.973-5.91-5.908v-6.779
			h4.766v6.596c0,1.24,0.599,1.834,1.88,1.834h0.645c1.277,0,1.872-0.594,1.872-1.834v-4.396c0-1.328-0.456-1.926-1.371-2.607
			l-4.949-3.621C91.642,14.338,91,12.824,91,10.355V5.956C91,1.971,92.969,0,96.953,0h2.065c3.938,0,5.903,1.971,5.903,5.909v5.817
			h-4.812V6.094c0-1.239-0.594-1.833-1.828-1.833h-0.598c-1.236,0-1.835,0.594-1.835,1.833v3.571c0,1.328,0.458,1.971,1.376,2.613
			l4.944,3.619C104.33,17.455,105.017,18.826,105.017,21.438"/>
	</g>
	<polygon fill="#222222" points="111.611,32.339 111.611,4.718 107.216,4.718 107.216,0.275 120.909,0.275 120.909,4.718 
		116.515,4.718 116.515,32.339 	"/>
	<g>
		<path fill="#222222" d="M131.08,4.307h-1.01c-1.282,0-1.879,0.597-1.879,1.876v20.25c0,1.272,0.597,1.875,1.879,1.875h1.01
			c1.233,0,1.829-0.603,1.829-1.875V6.183C132.909,4.904,132.313,4.307,131.08,4.307 M131.857,32.615h-2.613
			c-3.979,0-5.954-1.969-5.954-5.953V5.955c0-3.984,1.976-5.954,5.954-5.954h2.613c3.979,0,5.955,1.97,5.955,5.954v20.707
			C137.812,30.646,135.84,32.615,131.857,32.615"/>
	</g>
	<polygon fill="#222222" points="152.238,0.276 152.238,4.718 146.466,4.718 146.466,13.972 152.01,13.972 152.01,18.417 
		146.466,18.417 146.466,32.341 141.566,32.341 141.566,0.276 	"/>
</g>
</svg>
