<?xml version="1.0" encoding="utf-8"?>
<!-- Generator: Adobe Illustrator 16.0.0, SVG Export Plug-In . SVG Version: 6.00 Build 0)  -->
<!DOCTYPE svg PUBLIC "-//W3C//DTD SVG 1.1//EN" "http://www.w3.org/Graphics/SVG/1.1/DTD/svg11.dtd">
<svg version="1.1" id="Layer_1" xmlns="http://www.w3.org/2000/svg" xmlns:xlink="http://www.w3.org/1999/xlink" x="0px" y="0px"
	 width="600px" height="89.5px" viewBox="0 0 600 89.5" enable-background="new 0 0 600 89.5" xml:space="preserve">
<g opacity="0.5">
	<g>
		<line fill="none" stroke="#000000" stroke-miterlimit="10" x1="79" y1="32" x2="88" y2="32"/>
		<g>
			<polygon points="88,33.895 91.281,32 88,30.105 			"/>
		</g>
	</g>
</g>
<g opacity="0.5">
	<g>
		<line fill="none" stroke="#000000" stroke-miterlimit="10" x1="165" y1="32" x2="174" y2="32"/>
		<g>
			<polygon points="174,33.895 177.281,32 174,30.105 			"/>
		</g>
	</g>
</g>
<g opacity="0.5">
	<g>
		<line fill="none" stroke="#000000" stroke-miterlimit="10" x1="251" y1="32" x2="260" y2="32"/>
		<g>
			<polygon points="259,33.895 262.281,32 259,30.105 			"/>
		</g>
	</g>
</g>
<g opacity="0.5">
	<g>
		<line fill="none" stroke="#000000" stroke-miterlimit="10" x1="336" y1="32" x2="346" y2="32"/>
		<g>
			<polygon points="345,33.895 348.281,32 345,30.105 			"/>
		</g>
	</g>
</g>
<g opacity="0.5">
	<g>
		<line fill="none" stroke="#000000" stroke-miterlimit="10" x1="422" y1="32" x2="431" y2="32"/>
		<g>
			<polygon points="431,33.895 434.281,32 431,30.105 			"/>
		</g>
	</g>
</g>
<g opacity="0.5">
	<g>
		<line fill="none" stroke="#000000" stroke-miterlimit="10" x1="508" y1="32" x2="517" y2="32"/>
		<g>
			<polygon points="517,33.895 520.281,32 517,30.105 			"/>
		</g>
	</g>
</g>
<g>
	<g>
		<path opacity="0.5" d="M26.307,33.757h-2.555l-0.468,0.959c-0.072,0.168-0.12,0.288-0.12,0.396c0,0.216,0.192,0.324,0.66,0.336
			L23.716,36h-2.65l0.096-0.552c0.527-0.06,0.744-0.168,1.079-0.804l3.598-6.98h1.499l1.043,6.98c0.096,0.6,0.204,0.744,0.672,0.804
			L28.945,36h-3.406l0.096-0.552c0.648-0.024,0.804-0.156,0.804-0.492c0-0.048,0-0.06-0.012-0.168L26.307,33.757z M24.184,32.87
			h2.003l-0.251-2.195c-0.06-0.468-0.06-0.863-0.06-1.007v-0.18h-0.072c-0.024,0.072-0.192,0.456-0.492,1.091L24.184,32.87z"/>
		<path opacity="0.5" d="M35.078,30.243l-0.252,1.307h-1.199v-0.204c0-0.54-0.096-0.84-0.528-0.84c-0.947,0-1.607,1.595-1.607,3.298
			c0,0.875,0.36,1.319,1.067,1.319c0.636,0,1.007-0.24,1.451-0.576l0.384,0.552c-0.456,0.552-1.188,1.067-2.398,1.067
			c-1.463,0-2.315-0.899-2.315-2.471c0-1.871,1.343-3.958,3.61-3.958C34.214,29.739,34.79,30.003,35.078,30.243z"/>
		<path opacity="0.5" d="M38.919,34.765c-0.504,0.792-1.235,1.391-2.135,1.391c-0.948,0-1.511-0.624-1.511-1.727
			c0-2.422,1.883-4.689,3.898-4.689c0.66,0,1.055,0.276,1.163,0.684c0.132-0.228,0.312-0.396,0.48-0.54h1.079
			c-0.167,0.36-0.359,0.912-0.516,1.583l-1.259,5.505c-0.036,0.18-0.06,0.324-0.06,0.432c0,0.312,0.168,0.396,0.624,0.408
			l-0.132,0.54h-3.286l0.132-0.54c0.648-0.012,0.78-0.18,0.96-0.839L38.919,34.765z M37.084,34.177c0,0.6,0.18,0.852,0.479,0.852
			c0.516,0,1.104-0.695,1.583-1.439l0.647-2.734c-0.12-0.168-0.3-0.252-0.588-0.252C38.067,30.603,37.084,32.438,37.084,34.177z"/>
		<path opacity="0.5" d="M43.576,36.168c-0.852,0-1.248-0.492-1.248-1.235c0-0.204,0.024-0.396,0.072-0.612l0.611-2.59
			c0.048-0.18,0.06-0.324,0.06-0.456c0-0.432-0.24-0.587-0.815-0.587l0.096-0.468c0.384-0.192,0.924-0.396,1.523-0.396
			c0.647,0,1.02,0.336,1.02,1.02c0,0.18-0.036,0.432-0.084,0.636l-0.612,2.65c-0.036,0.156-0.048,0.276-0.048,0.384
			c0,0.288,0.132,0.396,0.384,0.396c0.492,0,1.043-0.648,1.463-1.319l0.779-3.694h1.715l-0.923,4.449
			c-0.036,0.18-0.06,0.336-0.06,0.456c0,0.3,0.156,0.419,0.564,0.419c0.096,0,0.204-0.012,0.336-0.024l0.036,0.492
			c-0.492,0.276-0.995,0.42-1.571,0.42c-0.768,0-1.116-0.396-1.116-1.115c0-0.06,0.012-0.168,0.012-0.18
			C45.231,35.64,44.5,36.168,43.576,36.168z"/>
		<path opacity="0.5" d="M51.112,34.345c-0.048,0.204-0.084,0.36-0.084,0.492c0,0.276,0.156,0.384,0.492,0.384
			c0.144,0,0.264-0.012,0.42-0.024l0.048,0.492c-0.54,0.276-1.043,0.42-1.619,0.42c-0.768,0-1.115-0.384-1.115-1.08
			c0-0.216,0.036-0.456,0.096-0.719l0.636-2.579c0.048-0.18,0.072-0.348,0.072-0.456c0-0.419-0.264-0.587-0.852-0.587l0.108-0.468
			c0.372-0.192,0.936-0.396,1.523-0.396c0.671,0,1.031,0.3,1.031,0.972c0,0.192-0.024,0.396-0.084,0.647L51.112,34.345z
			 M51.399,29.14c-0.552,0-1.007-0.444-1.007-0.995c0-0.552,0.456-1.008,1.031-1.008c0.552,0,0.996,0.456,0.996,1.008
			C52.419,28.696,51.963,29.14,51.399,29.14z"/>
		<path opacity="0.5" d="M53.68,31.574c0.024-0.12,0.036-0.216,0.036-0.312c0-0.396-0.228-0.564-0.828-0.576l0.108-0.468
			c0.408-0.204,0.924-0.396,1.511-0.396c0.552,0,0.864,0.42,0.864,1.224c0,0.144-0.012,0.3-0.036,0.479
			c0.444-1.007,1.127-1.787,1.919-1.787c0.216,0,0.36,0.024,0.552,0.12l-0.432,1.811c-0.24-0.096-0.408-0.132-0.66-0.132
			c-0.792,0-1.379,0.384-1.703,1.943L54.472,36h-1.739L53.68,31.574z"/>
		<path opacity="0.5" d="M60.615,35.112c0.66,0,1.199-0.192,1.763-0.695l0.372,0.516c-0.671,0.779-1.595,1.235-2.674,1.235
			c-1.571,0-2.339-0.875-2.339-2.375c0-2.146,1.559-4.054,3.574-4.054c1.223,0,2.075,0.48,2.075,1.655
			c0,1.547-1.691,2.015-3.562,2.015h-0.288c-0.024,0.228-0.024,0.336-0.024,0.528C59.512,34.657,59.86,35.112,60.615,35.112z
			 M61.203,30.519c-0.696,0-1.284,0.875-1.535,2.159h0.048c1.343,0,2.039-0.492,2.039-1.511
			C61.754,30.771,61.539,30.519,61.203,30.519z"/>
	</g>
	<rect y="-91.5" width="85" height="13"/>
</g>
<g>
	<g opacity="0.5">
		<path d="M115.372,34.585c-0.024,0.132-0.036,0.228-0.036,0.348c0,0.396,0.228,0.516,0.888,0.516L116.127,36h-3.742l0.096-0.552
			c0.648,0,0.875-0.168,1.008-0.852l1.067-5.493c0.024-0.144,0.048-0.288,0.048-0.372c0-0.372-0.204-0.479-0.708-0.492l0.108-0.576
			h3.382c1.883,0,2.843,0.612,2.843,2.219c0,1.164-0.564,2.135-1.667,2.603c-0.54,0.24-1.2,0.312-1.955,0.312h-0.888L115.372,34.585
			z M117.111,28.516h-0.564l-0.66,3.394h0.564c0.503,0,0.875-0.048,1.211-0.336c0.384-0.324,0.636-0.923,0.636-1.727
			C118.298,28.936,117.998,28.516,117.111,28.516z"/>
		<path d="M125.03,30.423c0.132-0.228,0.312-0.396,0.48-0.54h1.079c-0.168,0.36-0.36,0.912-0.516,1.583l-0.647,2.878
			c-0.048,0.192-0.072,0.348-0.072,0.468c0,0.3,0.156,0.408,0.552,0.408c0.096,0,0.216-0.012,0.348-0.024l0.036,0.492
			c-0.492,0.276-0.983,0.42-1.559,0.42c-0.78,0-1.104-0.408-1.104-1.175c0-0.06,0.012-0.156,0.012-0.168
			c-0.504,0.792-1.199,1.391-2.111,1.391c-0.948,0-1.487-0.624-1.487-1.727c0-2.422,1.811-4.689,3.826-4.689
			C124.526,29.739,124.922,30.015,125.03,30.423z M121.839,34.177c0,0.6,0.168,0.852,0.468,0.852c0.468,0,1.056-0.695,1.535-1.439
			l0.648-2.734c-0.12-0.168-0.3-0.252-0.588-0.252C122.787,30.603,121.839,32.51,121.839,34.177z"/>
		<path d="M128.056,31.574c0.024-0.12,0.036-0.216,0.036-0.312c0-0.396-0.228-0.564-0.828-0.576l0.108-0.468
			c0.408-0.204,0.924-0.396,1.511-0.396c0.552,0,0.864,0.42,0.864,1.224c0,0.144-0.012,0.3-0.036,0.479
			c0.444-1.007,1.127-1.787,1.919-1.787c0.216,0,0.36,0.024,0.552,0.12l-0.432,1.811c-0.24-0.096-0.408-0.132-0.66-0.132
			c-0.792,0-1.379,0.384-1.703,1.943L128.847,36h-1.739L128.056,31.574z"/>
		<path d="M131.933,35.616l0.204-1.295h1.091v0.048c0,0.671,0.264,1.031,0.959,1.031c0.587,0,1.104-0.18,1.104-0.84
			c0-0.443-0.288-0.624-0.78-0.803l-0.516-0.18c-0.828-0.276-1.355-0.755-1.355-1.715c0-1.391,1.14-2.123,2.579-2.123
			c0.996,0,1.607,0.264,1.979,0.468l-0.216,1.271h-1.056c-0.012-0.612-0.228-0.996-0.887-0.996c-0.528,0-0.972,0.288-0.972,0.816
			c0,0.335,0.24,0.527,0.696,0.684l0.528,0.18c1.043,0.348,1.535,0.839,1.535,1.799c0,1.355-1.056,2.207-2.794,2.207
			C132.868,36.168,132.245,35.844,131.933,35.616z"/>
		<path d="M140.643,35.112c0.66,0,1.199-0.192,1.763-0.695l0.372,0.516c-0.671,0.779-1.595,1.235-2.674,1.235
			c-1.571,0-2.339-0.875-2.339-2.375c0-2.146,1.559-4.054,3.574-4.054c1.223,0,2.075,0.48,2.075,1.655
			c0,1.547-1.691,2.015-3.562,2.015h-0.288c-0.024,0.228-0.024,0.336-0.024,0.528C139.539,34.657,139.887,35.112,140.643,35.112z
			 M141.23,30.519c-0.696,0-1.284,0.875-1.535,2.159h0.048c1.343,0,2.039-0.492,2.039-1.511
			C141.782,30.771,141.566,30.519,141.23,30.519z"/>
	</g>
	<rect x="86" y="-91.5" width="85" height="13"/>
</g>
<g>
	<g>
		<path opacity="0.5" d="M202.083,34.585c-0.024,0.132-0.036,0.251-0.036,0.348c0,0.396,0.228,0.516,0.888,0.516L202.838,36h-3.742
			l0.096-0.552c0.648,0,0.875-0.168,1.008-0.852l1.067-5.493c0.024-0.132,0.048-0.264,0.048-0.372c0-0.372-0.204-0.479-0.708-0.492
			l0.108-0.576h5.984l-0.251,2.051h-0.888c-0.108-0.959-0.192-1.199-1.055-1.199h-1.248l-0.563,2.915h0.708
			c0.744,0,0.971-0.168,1.151-0.852h0.792l-0.492,2.519h-0.792c0.012-0.084,0.024-0.204,0.024-0.288
			c0-0.419-0.204-0.576-0.828-0.576h-0.72L202.083,34.585z"/>
		<path opacity="0.5" d="M208.491,34.345c-0.048,0.204-0.084,0.36-0.084,0.492c0,0.276,0.156,0.384,0.492,0.384
			c0.144,0,0.264-0.012,0.419-0.024l0.048,0.492c-0.54,0.276-1.043,0.42-1.619,0.42c-0.768,0-1.116-0.384-1.116-1.08
			c0-0.216,0.036-0.456,0.096-0.719l0.636-2.579c0.048-0.18,0.072-0.348,0.072-0.456c0-0.419-0.264-0.587-0.852-0.587l0.108-0.468
			c0.372-0.192,0.936-0.396,1.523-0.396c0.671,0,1.031,0.3,1.031,0.972c0,0.192-0.024,0.396-0.084,0.647L208.491,34.345z
			 M208.779,29.14c-0.552,0-1.007-0.444-1.007-0.995c0-0.552,0.456-1.008,1.031-1.008c0.552,0,0.996,0.456,0.996,1.008
			C209.798,28.696,209.343,29.14,208.779,29.14z"/>
		<path opacity="0.5" d="M212.019,34.345c-0.048,0.204-0.072,0.372-0.072,0.492c0,0.276,0.132,0.384,0.516,0.384
			c0.108,0,0.24-0.012,0.396-0.024l0.048,0.492c-0.528,0.276-1.043,0.42-1.607,0.42c-0.792,0-1.127-0.396-1.127-1.104
			c0-0.168,0.024-0.432,0.084-0.695l1.115-5.169c0.036-0.192,0.06-0.348,0.06-0.479c0-0.42-0.216-0.552-0.708-0.564l0.12-0.54
			l2.219-0.312h0.156c0.036,0.108,0.072,0.3,0.072,0.6c0,0.372-0.048,0.815-0.18,1.427L212.019,34.345z"/>
		<path opacity="0.5" d="M217.67,30.771h-1.271l-0.696,3.274c-0.048,0.24-0.072,0.42-0.072,0.588c0,0.42,0.168,0.612,0.612,0.612
			c0.216,0,0.527-0.06,0.792-0.156l0.096,0.564c-0.503,0.348-1.151,0.516-1.763,0.516c-1.02,0-1.511-0.48-1.511-1.248
			c0-0.251,0.036-0.516,0.108-0.852l0.695-3.298h-0.708l0.12-0.6l0.852-0.276c0.228-0.6,0.576-1.319,1.043-1.703l1.163-0.096
			c-0.168,0.42-0.396,1.188-0.54,1.799h1.427L217.67,30.771z"/>
		<path opacity="0.5" d="M220.802,35.112c0.66,0,1.199-0.192,1.763-0.695l0.372,0.516c-0.671,0.779-1.595,1.235-2.674,1.235
			c-1.571,0-2.339-0.875-2.339-2.375c0-2.146,1.559-4.054,3.574-4.054c1.223,0,2.075,0.48,2.075,1.655
			c0,1.547-1.691,2.015-3.562,2.015h-0.288c-0.024,0.228-0.024,0.336-0.024,0.528C219.699,34.657,220.047,35.112,220.802,35.112z
			 M221.39,30.519c-0.696,0-1.284,0.875-1.535,2.159h0.048c1.343,0,2.039-0.492,2.039-1.511
			C221.941,30.771,221.726,30.519,221.39,30.519z"/>
		<path opacity="0.5" d="M225.027,31.574c0.024-0.12,0.036-0.216,0.036-0.312c0-0.396-0.228-0.564-0.828-0.576l0.108-0.468
			c0.408-0.204,0.924-0.396,1.511-0.396c0.552,0,0.864,0.42,0.864,1.224c0,0.144-0.012,0.3-0.036,0.479
			c0.444-1.007,1.127-1.787,1.919-1.787c0.216,0,0.36,0.024,0.552,0.12l-0.432,1.811c-0.24-0.096-0.408-0.132-0.66-0.132
			c-0.792,0-1.379,0.384-1.703,1.943L225.818,36h-1.739L225.027,31.574z"/>
	</g>
	<rect x="172" y="-91.5" width="85" height="13"/>
</g>
<g>
	<g opacity="0.5">
		<path d="M297.429,28.229c-0.852,0.048-0.972,0.275-1.056,0.911l-0.684,5.373c-0.084,0.696-0.012,0.912,0.672,0.936L296.266,36
			h-3.514l0.096-0.552c0.768-0.024,0.875-0.18,0.972-0.852l0.516-3.778c0.084-0.624,0.228-1.451,0.264-1.643h-0.072
			c-0.06,0.18-0.36,0.983-0.672,1.619L291.252,36h-1.103l-0.456-5.001c-0.036-0.396-0.048-0.851-0.048-1.199
			c0-0.3,0.012-0.54,0.012-0.624h-0.072c-0.036,0.228-0.204,1.139-0.36,1.703l-1.031,3.706c-0.048,0.18-0.084,0.324-0.084,0.443
			c0,0.312,0.204,0.42,0.731,0.42L288.734,36h-2.687l0.096-0.552c0.695-0.024,0.852-0.216,1.055-0.936l1.487-5.373
			c0.06-0.192,0.084-0.348,0.084-0.479c0-0.288-0.204-0.396-0.78-0.432l0.108-0.564h3.094l0.348,4.234
			c0.048,0.552,0.06,0.911,0.06,1.235c0,0.24-0.012,0.419-0.012,0.492h0.072c0.036-0.156,0.252-0.875,0.6-1.619l2.075-4.342h3.202
			L297.429,28.229z"/>
		<path d="M299.414,34.345c-0.048,0.204-0.084,0.36-0.084,0.492c0,0.276,0.156,0.384,0.492,0.384c0.144,0,0.264-0.012,0.419-0.024
			l0.048,0.492c-0.54,0.276-1.043,0.42-1.619,0.42c-0.768,0-1.116-0.384-1.116-1.08c0-0.216,0.036-0.456,0.096-0.719l0.636-2.579
			c0.048-0.18,0.072-0.348,0.072-0.456c0-0.419-0.264-0.587-0.852-0.587l0.108-0.468c0.372-0.192,0.936-0.396,1.523-0.396
			c0.671,0,1.031,0.3,1.031,0.972c0,0.192-0.024,0.396-0.084,0.647L299.414,34.345z M299.702,29.14
			c-0.552,0-1.007-0.444-1.007-0.995c0-0.552,0.456-1.008,1.031-1.008c0.552,0,0.996,0.456,0.996,1.008
			C300.721,28.696,300.266,29.14,299.702,29.14z"/>
		<path d="M305.4,31.814c0.023-0.108,0.035-0.204,0.035-0.288c0-0.228-0.096-0.372-0.359-0.372c-0.479,0-1.067,0.6-1.547,1.319
			L302.773,36h-1.738l0.947-4.426c0.023-0.12,0.035-0.216,0.035-0.312c0-0.396-0.228-0.564-0.827-0.576l0.108-0.468
			c0.407-0.204,0.924-0.396,1.511-0.396c0.563,0,0.911,0.324,0.911,1.127c0,0.144-0.012,0.288-0.035,0.456
			c0.611-0.984,1.427-1.667,2.398-1.667c0.815,0,1.188,0.516,1.188,1.224c0,0.168-0.012,0.348-0.061,0.54l-0.647,2.842
			c-0.048,0.204-0.071,0.36-0.071,0.492c0,0.276,0.131,0.384,0.503,0.384c0.108,0,0.24-0.012,0.396-0.024l0.037,0.492
			c-0.528,0.276-1.032,0.42-1.572,0.42c-0.791,0-1.139-0.384-1.139-1.08c0-0.216,0.035-0.456,0.096-0.719L305.4,31.814z"/>
		<path d="M311.029,35.112c0.659,0,1.199-0.192,1.763-0.695l0.372,0.516c-0.672,0.779-1.596,1.235-2.675,1.235
			c-1.571,0-2.339-0.875-2.339-2.375c0-2.146,1.559-4.054,3.574-4.054c1.223,0,2.074,0.48,2.074,1.655
			c0,1.547-1.69,2.015-3.562,2.015h-0.288c-0.023,0.228-0.023,0.336-0.023,0.528C309.926,34.657,310.273,35.112,311.029,35.112z
			 M311.617,30.519c-0.696,0-1.284,0.875-1.535,2.159h0.047c1.344,0,2.039-0.492,2.039-1.511
			C312.168,30.771,311.952,30.519,311.617,30.519z"/>
	</g>
	<rect x="257" y="-91.5" width="85" height="13"/>
</g>
<g>
	<g>
		<path d="M360.819,34.597c-0.024,0.144-0.048,0.288-0.048,0.372c0,0.372,0.203,0.479,0.707,0.479L361.383,36h-3.55l0.096-0.552
			c0.647,0,0.876-0.168,1.008-0.852l1.067-5.493c0.023-0.12,0.048-0.264,0.048-0.372c0-0.372-0.204-0.479-0.708-0.492l0.108-0.576
			h3.49c1.739,0,2.734,0.624,2.734,2.003c0,1.595-1.151,2.423-2.675,2.59v0.048c0.432,0.132,0.888,0.444,1.115,0.852
			c0.252,0.432,0.408,0.875,0.648,1.595c0.155,0.456,0.287,0.695,0.779,0.695L365.449,36h-2.315
			c-0.288-1.043-0.456-1.631-0.755-2.482c-0.276-0.78-0.553-0.948-1.152-1.02L360.819,34.597z M361.395,31.658h0.624
			c1.115,0,1.728-0.768,1.728-1.967c0-0.863-0.36-1.175-1.212-1.175h-0.54L361.395,31.658z"/>
		<path d="M369.123,35.112c0.66,0,1.199-0.192,1.764-0.695l0.371,0.516c-0.672,0.779-1.596,1.235-2.674,1.235
			c-1.572,0-2.34-0.875-2.34-2.375c0-2.146,1.56-4.054,3.574-4.054c1.224,0,2.075,0.48,2.075,1.655c0,1.547-1.69,2.015-3.562,2.015
			h-0.289c-0.023,0.228-0.023,0.336-0.023,0.528C368.02,34.657,368.367,35.112,369.123,35.112z M369.711,30.519
			c-0.695,0-1.283,0.875-1.535,2.159h0.048c1.343,0,2.038-0.492,2.038-1.511C370.262,30.771,370.047,30.519,369.711,30.519z"/>
		<path d="M373.973,36.972c-0.037,0.167-0.061,0.275-0.061,0.419c0,0.324,0.18,0.408,0.66,0.42l-0.133,0.54h-3.262l0.119-0.54
			c0.612-0.012,0.756-0.156,0.9-0.839l1.15-5.397c0.024-0.12,0.037-0.228,0.037-0.324c0-0.384-0.217-0.552-0.816-0.563l0.096-0.468
			c0.408-0.204,0.924-0.396,1.512-0.396c0.576,0,0.972,0.336,0.972,1.164c0,0.084,0,0.168-0.013,0.252
			c0.516-0.804,1.283-1.487,2.231-1.487c0.899,0,1.511,0.671,1.511,1.859c0,2.483-1.643,4.558-3.897,4.558
			c-0.36,0-0.612-0.036-0.804-0.12L373.973,36.972z M374.367,35.161c0.097,0.167,0.276,0.276,0.576,0.276
			c1.355,0,2.027-2.087,2.027-3.55c0-0.684-0.229-0.875-0.553-0.875c-0.455,0-1.031,0.552-1.427,1.175L374.367,35.161z"/>
		<path d="M380.488,31.574c0.023-0.12,0.035-0.216,0.035-0.312c0-0.396-0.228-0.564-0.827-0.576l0.108-0.468
			c0.407-0.204,0.924-0.396,1.511-0.396c0.552,0,0.864,0.42,0.864,1.224c0,0.144-0.013,0.3-0.037,0.479
			c0.444-1.007,1.128-1.787,1.92-1.787c0.215,0,0.359,0.024,0.551,0.12l-0.432,1.811c-0.24-0.096-0.408-0.132-0.659-0.132
			c-0.792,0-1.38,0.384-1.703,1.943L381.279,36h-1.738L380.488,31.574z"/>
		<path d="M387.423,35.112c0.659,0,1.199-0.192,1.763-0.695l0.372,0.516c-0.671,0.779-1.595,1.235-2.675,1.235
			c-1.57,0-2.338-0.875-2.338-2.375c0-2.146,1.559-4.054,3.574-4.054c1.223,0,2.074,0.48,2.074,1.655
			c0,1.547-1.691,2.015-3.562,2.015h-0.287c-0.024,0.228-0.024,0.336-0.024,0.528C386.319,34.657,386.668,35.112,387.423,35.112z
			 M388.011,30.519c-0.696,0-1.284,0.875-1.535,2.159h0.048c1.344,0,2.039-0.492,2.039-1.511
			C388.562,30.771,388.346,30.519,388.011,30.519z"/>
		<path d="M390.365,35.616l0.203-1.295h1.092v0.048c0,0.671,0.264,1.031,0.959,1.031c0.588,0,1.104-0.18,1.104-0.84
			c0-0.443-0.287-0.624-0.779-0.803l-0.516-0.18c-0.828-0.276-1.355-0.755-1.355-1.715c0-1.391,1.14-2.123,2.578-2.123
			c0.996,0,1.607,0.264,1.979,0.468l-0.216,1.271h-1.056c-0.012-0.612-0.228-0.996-0.888-0.996c-0.527,0-0.971,0.288-0.971,0.816
			c0,0.335,0.239,0.527,0.695,0.684l0.527,0.18c1.044,0.348,1.535,0.839,1.535,1.799c0,1.355-1.055,2.207-2.794,2.207
			C391.301,36.168,390.677,35.844,390.365,35.616z"/>
		<path d="M399.074,35.112c0.66,0,1.199-0.192,1.764-0.695l0.371,0.516c-0.671,0.779-1.595,1.235-2.674,1.235
			c-1.571,0-2.339-0.875-2.339-2.375c0-2.146,1.56-4.054,3.574-4.054c1.224,0,2.075,0.48,2.075,1.655
			c0,1.547-1.691,2.015-3.562,2.015h-0.288c-0.024,0.228-0.024,0.336-0.024,0.528C397.971,34.657,398.319,35.112,399.074,35.112z
			 M399.662,30.519c-0.695,0-1.283,0.875-1.535,2.159h0.049c1.343,0,2.038-0.492,2.038-1.511
			C400.214,30.771,399.998,30.519,399.662,30.519z"/>
		<path d="M406.719,31.814c0.023-0.108,0.035-0.204,0.035-0.288c0-0.228-0.096-0.372-0.359-0.372c-0.48,0-1.068,0.6-1.547,1.319
			L404.092,36h-1.739l0.947-4.426c0.024-0.12,0.036-0.216,0.036-0.312c0-0.396-0.229-0.564-0.828-0.576l0.108-0.468
			c0.407-0.204,0.924-0.396,1.511-0.396c0.564,0,0.912,0.324,0.912,1.127c0,0.144-0.012,0.288-0.036,0.456
			c0.612-0.984,1.427-1.667,2.399-1.667c0.814,0,1.187,0.516,1.187,1.224c0,0.168-0.012,0.348-0.06,0.54l-0.648,2.842
			c-0.047,0.204-0.071,0.36-0.071,0.492c0,0.276,0.132,0.384,0.503,0.384c0.108,0,0.24-0.012,0.396-0.024l0.036,0.492
			c-0.528,0.276-1.032,0.42-1.571,0.42c-0.791,0-1.139-0.384-1.139-1.08c0-0.216,0.035-0.456,0.096-0.719L406.719,31.814z"/>
		<path d="M413.486,30.771h-1.271l-0.695,3.274c-0.049,0.24-0.072,0.42-0.072,0.588c0,0.42,0.168,0.612,0.611,0.612
			c0.217,0,0.527-0.06,0.792-0.156l0.096,0.564c-0.503,0.348-1.151,0.516-1.763,0.516c-1.02,0-1.512-0.48-1.512-1.248
			c0-0.251,0.036-0.516,0.108-0.852l0.695-3.298h-0.708l0.121-0.6l0.852-0.276c0.228-0.6,0.575-1.319,1.043-1.703l1.163-0.096
			c-0.168,0.42-0.396,1.188-0.54,1.799h1.428L413.486,30.771z"/>
	</g>
	<rect x="343" y="-91.5" width="85" height="13"/>
</g>
<g>
	<g>
		<path d="M538.814,34.597c-0.132,0.684,0.023,0.852,0.66,0.852L539.378,36h-3.55l0.096-0.552c0.648,0,0.875-0.168,1.008-0.852
			l1.067-5.493c0.024-0.12,0.048-0.264,0.048-0.372c0-0.372-0.204-0.479-0.707-0.492l0.107-0.576h3.538l-0.108,0.576
			c-0.635,0.012-0.863,0.18-0.995,0.864L538.814,34.597z"/>
		<path d="M545.065,31.814c0.024-0.108,0.036-0.204,0.036-0.288c0-0.228-0.096-0.372-0.36-0.372c-0.479,0-1.067,0.6-1.547,1.319
			L542.438,36h-1.739l0.947-4.426c0.024-0.12,0.037-0.216,0.037-0.312c0-0.396-0.229-0.564-0.828-0.576l0.107-0.468
			c0.408-0.204,0.924-0.396,1.512-0.396c0.564,0,0.912,0.324,0.912,1.127c0,0.144-0.013,0.288-0.037,0.456
			c0.612-0.984,1.428-1.667,2.399-1.667c0.815,0,1.187,0.516,1.187,1.224c0,0.168-0.012,0.348-0.059,0.54l-0.648,2.842
			c-0.048,0.204-0.072,0.36-0.072,0.492c0,0.276,0.133,0.384,0.504,0.384c0.108,0,0.24-0.012,0.396-0.024l0.035,0.492
			c-0.527,0.276-1.031,0.42-1.57,0.42c-0.792,0-1.14-0.384-1.14-1.08c0-0.216,0.036-0.456,0.096-0.719L545.065,31.814z"/>
		<path d="M551.834,30.771h-1.271l-0.696,3.274c-0.048,0.24-0.071,0.42-0.071,0.588c0,0.42,0.168,0.612,0.611,0.612
			c0.216,0,0.527-0.06,0.791-0.156l0.096,0.564c-0.503,0.348-1.15,0.516-1.762,0.516c-1.02,0-1.512-0.48-1.512-1.248
			c0-0.251,0.035-0.516,0.107-0.852l0.695-3.298h-0.707l0.12-0.6l0.852-0.276c0.228-0.6,0.575-1.319,1.044-1.703l1.162-0.096
			c-0.168,0.42-0.395,1.188-0.539,1.799h1.428L551.834,30.771z"/>
		<path d="M554.966,35.112c0.659,0,1.199-0.192,1.763-0.695l0.372,0.516c-0.671,0.779-1.595,1.235-2.675,1.235
			c-1.57,0-2.338-0.875-2.338-2.375c0-2.146,1.559-4.054,3.574-4.054c1.223,0,2.074,0.48,2.074,1.655
			c0,1.547-1.691,2.015-3.562,2.015h-0.287c-0.024,0.228-0.024,0.336-0.024,0.528C553.862,34.657,554.211,35.112,554.966,35.112z
			 M555.554,30.519c-0.696,0-1.284,0.875-1.535,2.159h0.048c1.344,0,2.039-0.492,2.039-1.511
			C556.105,30.771,555.889,30.519,555.554,30.519z"/>
		<path d="M559.19,31.574c0.024-0.12,0.036-0.216,0.036-0.312c0-0.396-0.229-0.564-0.828-0.576l0.108-0.468
			c0.407-0.204,0.924-0.396,1.511-0.396c0.553,0,0.864,0.42,0.864,1.224c0,0.144-0.013,0.3-0.036,0.479
			c0.443-1.007,1.127-1.787,1.919-1.787c0.216,0,0.36,0.024,0.552,0.12l-0.432,1.811c-0.24-0.096-0.408-0.132-0.66-0.132
			c-0.791,0-1.379,0.384-1.703,1.943L559.982,36h-1.739L559.19,31.574z"/>
		<path d="M568.033,30.423c0.131-0.228,0.312-0.396,0.479-0.54h1.079c-0.168,0.36-0.359,0.912-0.516,1.583l-0.647,2.878
			c-0.048,0.192-0.072,0.348-0.072,0.468c0,0.3,0.156,0.408,0.552,0.408c0.096,0,0.216-0.012,0.348-0.024l0.036,0.492
			c-0.491,0.276-0.983,0.42-1.56,0.42c-0.779,0-1.104-0.408-1.104-1.175c0-0.06,0.013-0.156,0.013-0.168
			c-0.504,0.792-1.199,1.391-2.11,1.391c-0.948,0-1.488-0.624-1.488-1.727c0-2.422,1.812-4.689,3.826-4.689
			C567.529,29.739,567.925,30.015,568.033,30.423z M564.842,34.177c0,0.6,0.168,0.852,0.469,0.852c0.467,0,1.055-0.695,1.535-1.439
			l0.647-2.734c-0.12-0.168-0.3-0.252-0.588-0.252C565.79,30.603,564.842,32.51,564.842,34.177z"/>
		<path d="M575.473,30.243l-0.252,1.307h-1.199v-0.204c0-0.54-0.096-0.84-0.528-0.84c-0.947,0-1.606,1.595-1.606,3.298
			c0,0.875,0.359,1.319,1.066,1.319c0.637,0,1.008-0.24,1.451-0.576l0.385,0.552c-0.456,0.552-1.188,1.067-2.398,1.067
			c-1.464,0-2.315-0.899-2.315-2.471c0-1.871,1.343-3.958,3.61-3.958C574.609,29.739,575.185,30.003,575.473,30.243z"/>
		<path d="M579.732,30.771h-1.271l-0.695,3.274c-0.048,0.24-0.072,0.42-0.072,0.588c0,0.42,0.168,0.612,0.612,0.612
			c0.216,0,0.527-0.06,0.792-0.156l0.096,0.564c-0.504,0.348-1.152,0.516-1.764,0.516c-1.02,0-1.511-0.48-1.511-1.248
			c0-0.251,0.036-0.516,0.108-0.852l0.695-3.298h-0.708l0.12-0.6l0.852-0.276c0.228-0.6,0.576-1.319,1.043-1.703l1.164-0.096
			c-0.168,0.42-0.396,1.188-0.54,1.799h1.427L579.732,30.771z"/>
	</g>
	<rect x="515" y="-91.5" width="85" height="13"/>
</g>
<g>
	<g>
		<path d="M456.807,34.597c-0.023,0.144-0.047,0.288-0.047,0.372c0,0.372,0.203,0.479,0.707,0.479L457.371,36h-3.551l0.096-0.552
			c0.648,0,0.876-0.168,1.008-0.852l1.068-5.493c0.023-0.12,0.047-0.264,0.047-0.372c0-0.372-0.203-0.479-0.707-0.492l0.107-0.576
			h3.49c1.739,0,2.734,0.624,2.734,2.003c0,1.595-1.15,2.423-2.674,2.59v0.048c0.432,0.132,0.887,0.444,1.115,0.852
			c0.252,0.432,0.408,0.875,0.647,1.595c0.155,0.456,0.288,0.695,0.78,0.695L461.437,36h-2.315
			c-0.287-1.043-0.455-1.631-0.755-2.482c-0.276-0.78-0.552-0.948-1.151-1.02L456.807,34.597z M457.383,31.658h0.623
			c1.115,0,1.728-0.768,1.728-1.967c0-0.863-0.36-1.175-1.212-1.175h-0.539L457.383,31.658z"/>
		<path d="M465.111,35.112c0.659,0,1.199-0.192,1.763-0.695l0.372,0.516c-0.672,0.779-1.596,1.235-2.675,1.235
			c-1.571,0-2.339-0.875-2.339-2.375c0-2.146,1.559-4.054,3.574-4.054c1.223,0,2.074,0.48,2.074,1.655
			c0,1.547-1.69,2.015-3.562,2.015h-0.288c-0.023,0.228-0.023,0.336-0.023,0.528C464.008,34.657,464.355,35.112,465.111,35.112z
			 M465.699,30.519c-0.696,0-1.284,0.875-1.535,2.159h0.047c1.344,0,2.039-0.492,2.039-1.511
			C466.25,30.771,466.034,30.519,465.699,30.519z"/>
		<path d="M467.861,38.255c-0.48,0-0.756-0.096-0.972-0.204v-0.456c1.007-0.06,1.259-0.324,1.438-1.271l1.092-5.553h-0.756
			l0.145-0.6l0.791-0.264l0.18-0.779c0.289-1.259,1.308-1.919,2.531-1.919c0.588,0,1.199,0.108,1.57,0.288l-0.203,1.14h-1.08
			c0-0.444-0.071-0.672-0.395-0.672c-0.265,0-0.469,0.144-0.588,0.708l-0.252,1.224h1.463l-0.371,0.875h-1.271l-1.128,5.637
			C469.804,37.631,468.988,38.255,467.861,38.255z"/>
		<path d="M474.58,34.345c-0.049,0.204-0.084,0.36-0.084,0.492c0,0.276,0.155,0.384,0.491,0.384c0.144,0,0.264-0.012,0.419-0.024
			l0.049,0.492c-0.54,0.276-1.043,0.42-1.619,0.42c-0.768,0-1.115-0.384-1.115-1.08c0-0.216,0.035-0.456,0.096-0.719l0.636-2.579
			c0.048-0.18,0.071-0.348,0.071-0.456c0-0.419-0.264-0.587-0.852-0.587l0.108-0.468c0.372-0.192,0.936-0.396,1.523-0.396
			c0.671,0,1.031,0.3,1.031,0.972c0,0.192-0.024,0.396-0.084,0.647L474.58,34.345z M474.867,29.14c-0.552,0-1.008-0.444-1.008-0.995
			c0-0.552,0.456-1.008,1.031-1.008c0.553,0,0.996,0.456,0.996,1.008C475.887,28.696,475.432,29.14,474.867,29.14z"/>
		<path d="M480.566,31.814c0.023-0.108,0.035-0.204,0.035-0.288c0-0.228-0.096-0.372-0.359-0.372c-0.48,0-1.068,0.6-1.547,1.319
			L477.939,36H476.2l0.947-4.426c0.024-0.12,0.036-0.216,0.036-0.312c0-0.396-0.229-0.564-0.828-0.576l0.108-0.468
			c0.407-0.204,0.924-0.396,1.511-0.396c0.564,0,0.912,0.324,0.912,1.127c0,0.144-0.012,0.288-0.036,0.456
			c0.612-0.984,1.427-1.667,2.399-1.667c0.814,0,1.187,0.516,1.187,1.224c0,0.168-0.012,0.348-0.06,0.54l-0.648,2.842
			c-0.047,0.204-0.071,0.36-0.071,0.492c0,0.276,0.132,0.384,0.503,0.384c0.109,0,0.24-0.012,0.396-0.024l0.036,0.492
			c-0.528,0.276-1.032,0.42-1.571,0.42c-0.791,0-1.139-0.384-1.139-1.08c0-0.216,0.035-0.456,0.096-0.719L480.566,31.814z"/>
		<path d="M486.194,35.112c0.659,0,1.199-0.192,1.763-0.695l0.372,0.516c-0.671,0.779-1.595,1.235-2.675,1.235
			c-1.57,0-2.338-0.875-2.338-2.375c0-2.146,1.559-4.054,3.574-4.054c1.223,0,2.074,0.48,2.074,1.655
			c0,1.547-1.691,2.015-3.562,2.015h-0.287c-0.024,0.228-0.024,0.336-0.024,0.528C485.091,34.657,485.439,35.112,486.194,35.112z
			 M486.782,30.519c-0.696,0-1.284,0.875-1.535,2.159h0.048c1.344,0,2.039-0.492,2.039-1.511
			C487.334,30.771,487.117,30.519,486.782,30.519z"/>
	</g>
	<rect x="429" y="-91.5" width="85" height="13"/>
</g>
<g>
	<g>
		<path fill="none" stroke="#000000" stroke-miterlimit="10" d="M368.655,45.501C340.985,68.573,282.132,84.5,214,84.5
			c-66.438,0-124.054-15.145-152.534-37.292"/>
		<g>
			<polygon points="63.102,45.987 59.345,45.5 60.801,48.998 			"/>
		</g>
	</g>
</g>
<g>
	<g>
		<path fill="none" stroke="#000000" stroke-miterlimit="10" d="M546.707,45.5c-21.014,23.073-65.712,39-117.457,39
			c-50.255,0-93.861-15.022-115.582-37.024"/>
		<g>
			<polygon points="315.45,46.492 311.793,45.5 312.762,49.163 			"/>
		</g>
	</g>
</g>
<g>
	<g>
		<path fill="none" stroke="#000000" stroke-miterlimit="10" d="M226.077,19.492C242.385,9.486,268.529,3,298,3
			c30.807,0,57.977,7.086,74.078,17.874"/>
		<g>
			<polygon points="227.571,20.814 223.785,20.966 225.546,17.611 			"/>
		</g>
	</g>
</g>
<g>
	<g>
		<path fill="none" stroke="#000000" stroke-miterlimit="10" d="M474.368,18.881C483.054,9.222,496.681,3,512,3
			c16.156,0,30.428,6.919,39.009,17.492"/>
		<g>
			<polygon points="476.187,19.709 472.612,20.966 473.311,17.242 			"/>
		</g>
	</g>
</g>
</svg>
